<svg width="48" height="49" viewBox="0 0 48 49" fill="none" xmlns="http://www.w3.org/2000/svg">
<path d="M16.7258 7.79039C13.7136 8.33464 11.3771 10.324 10.4106 13.1578C10.298 13.505 10.1666 13.9836 10.1385 14.2088C10.0728 14.6029 9.99772 14.6874 8.85292 15.682C5.60618 18.5065 2.57527 22.2975 0.670393 25.9196C0.0135392 27.1582 -0.0896808 27.5523 0.0604573 28.181C0.210595 28.8191 0.858066 29.476 1.47739 29.6355C1.80581 29.7199 7.15448 29.7481 22.9565 29.7481H43.9946L43.9289 30.2266C43.7412 31.6436 42.8592 32.7884 41.4516 33.4359C41.0106 33.6423 41.0106 33.6423 31.9085 33.6892C22.8533 33.7455 22.8064 33.7455 22.0557 33.9519C18.9216 34.8246 16.6507 37.2738 16.1065 40.3891C16.0502 40.6988 16.0032 41.1304 16.0032 41.3556V41.7591H17.9738C20.2071 41.7591 19.9537 41.853 20.0851 40.924C20.2071 40.0232 20.9296 38.9534 21.8023 38.3904C22.8345 37.7336 22.1026 37.7805 32.19 37.7242C42.3806 37.6679 41.6862 37.7148 43.2908 36.9641C45.8526 35.7818 47.5698 33.4171 47.8982 30.6395C48.0483 29.3634 48.0296 24.7654 47.8607 23.3484C46.9035 15.1753 42.3243 9.77972 35.0051 8.21265C33.1565 7.81854 32.312 7.74347 29.7503 7.75286C28.0143 7.75286 26.9633 7.79977 26.1 7.92176C24.8895 8.08128 22.797 8.45663 22.2058 8.63492C21.9431 8.70999 21.8211 8.68184 21.4364 8.49416C20.5731 8.05313 19.4189 7.78101 18.2553 7.74347C17.6641 7.7247 16.9698 7.74347 16.7258 7.79039ZM19.0998 11.8441C20.6294 12.3039 21.7179 13.5895 21.9525 15.2222L22.0181 15.6726H18.0113H14.0045L14.0608 15.1002C14.2673 12.82 16.829 11.1685 19.0998 11.8441ZM12.597 19.9422C13.4509 20.3363 13.9013 21.331 13.6573 22.2506C13.4884 22.8605 12.8222 23.4892 12.1841 23.6393C10.8704 23.9584 9.54731 22.7667 9.75375 21.4623C9.97895 20.0642 11.3208 19.3416 12.597 19.9422Z" fill="url(#paint0_linear_2_243)"/>
<defs>
<linearGradient id="paint0_linear_2_243" x1="24" y1="42.1992" x2="24" y2="8.02434" gradientUnits="userSpaceOnUse">
<stop stop-color="#D5224E"/>
<stop offset="1" stop-color="#FF003F"/>
</linearGradient>
</defs>
</svg>
